<?xml version="1.0" standalone="no"?>
<svg width="567.429" height="387.116" viewBox="0 0 567.429 387.116" xmlns="http://www.w3.org/2000/svg" shape-rendering="crispEdges">
<title>
/home/jeb/adnef/brumlit/Ep1912keV.svg
</title>
<desc>
Creator: ROOT Version 6.28/06
CreationDate: Thu Oct 26 14:09:51 2023</desc>
<defs>
</defs>
<rect x="0.5" y="0" width="566.929" height="386.616" fill="white"/>
<rect x="63.0409" y="38.1743" width="447.533" height="309.456" fill="white"/>
<rect x="63.0409" y="38.1743" width="447.533" height="309.456" fill="none" stroke="black"/>
<rect x="63.0409" y="38.1743" width="447.533" height="309.456" fill="white"/>
<rect x="63.0409" y="38.1743" width="447.533" height="309.456" fill="none" stroke="black"/>
<path d="M63.0409,336.299h 2.79708v -38.7928h 2.79708v -30.0028h 2.79708v -24.0925h 2.79708v -20.761h 2.79708v -16.3001h 2.79708v -17.2601h 2.79708v -12.8368h 2.79708v -12.7803h 2.79708v -8.3571h 2.79708v -12.7992h 2.79708v -9.99464h 2.79708v
 -8.05595h 2.79708v -9.7876h 2.79708v -9.54291h 2.79708v -2.87981h 2.79708v -7.47245h 2.79708v -9.09117h 2.79708v -1.31756h 2.79708v -7.35952h 2.79708v -6.49369h 2.79708v 0.432913h 2.79708v -4.8938h 2.79708v -6.62545h 2.79708v 0.865826h 2.79708v
 -2.4469h 2.79708v -1.27992h 2.79708v -1.95752h 2.79708v 2.16456h 2.79708v -3.67035h 2.79708v 3.82093h 2.79708v -2.67277h 2.79708v 0.414091h 2.79708v 3.25626h 2.79708v 1.16698h 2.79708v 2.12692h 2.79708v 1.09169h 2.79708v 3.18097h 2.79708v 3.48213h
 2.79708v 3.51977h 2.79708v 3.27508h 2.79708v -0.583491h 2.79708v 8.48886h 2.79708v 0.922293h 2.79708v 2.71041h 2.79708v 0.150578h 2.79708v 0.997582h 2.79708v 6.81367h 2.79708v 6.00431h 2.79708v 5.0632h 2.79708v 3.44448h 2.79708v 2.84217h 2.79708v
 5.72198h 2.79708v 3.36919h 2.79708v 5.64669h 2.79708v 2.2775h 2.79708v 4.76204h 2.79708v 3.36919h 2.79708v 3.85857h 2.79708v -1.7693h 2.79708v 13.3827h 2.79708v -0.112934h 2.79708v 7.83008h 2.79708v 4.91262h 2.79708v 3.36919h 2.79708v 5.15731h
 2.79708v 3.42566h 2.79708v 7.8489h 2.79708v -0.696425h 2.79708v 5.38318h 2.79708v 2.25868h 2.79708v 5.17613h 2.79708v 4.74322h 2.79708v 2.59748h 2.79708v 5.75962h 2.79708v 3.76446h 2.79708v 2.74806h 2.79708v 5.66551h 2.79708v 0.207045h 2.79708v
 7.3407h 2.79708v 6.21136h 2.79708v 4.85615h 2.79708v 3.10568h 2.79708v 3.83975h 2.79708v 6.06078h 2.79708v 2.97392h 2.79708v 5.53376h 2.79708v 3.4633h 2.79708v 4.44206h 2.79708v 4.34795h 2.79708v 6.21136h 2.79708v 3.85857h 2.79708v 1.78812h 2.79708v
 1.90105h 2.79708v 7.22776h 2.79708v 2.76688h 2.79708v 4.02797h 2.79708v 3.6327h 2.79708v 8.11241h 2.79708v -0.508202h 2.79708v 5.10084h 2.79708v 4.2162h 2.79708v 4.59264h 2.79708v 3.8021h 2.79708v 2.99275h 2.79708v 4.555h 2.79708v 4.00915h 2.79708v
 3.4633h 2.79708v 0.621136h 145.448" fill="none" stroke="#000099" stroke-width="2"/>
<path d="M63.0409,347.63h 447.533" fill="none" stroke="black"/>
<path d="M63.0409,338.474v 9.15583" fill="none" stroke="black"/>
<path d="M77.0263,343.052v 4.57792" fill="none" stroke="black"/>
<path d="M91.0117,343.052v 4.57792" fill="none" stroke="black"/>
<path d="M104.997,343.052v 4.57792" fill="none" stroke="black"/>
<path d="M118.983,338.474v 9.15583" fill="none" stroke="black"/>
<path d="M132.968,343.052v 4.57792" fill="none" stroke="black"/>
<path d="M146.953,343.052v 4.57792" fill="none" stroke="black"/>
<path d="M160.939,343.052v 4.57792" fill="none" stroke="black"/>
<path d="M174.924,338.474v 9.15583" fill="none" stroke="black"/>
<path d="M188.91,343.052v 4.57792" fill="none" stroke="black"/>
<path d="M202.895,343.052v 4.57792" fill="none" stroke="black"/>
<path d="M216.88,343.052v 4.57792" fill="none" stroke="black"/>
<path d="M230.866,338.474v 9.15583" fill="none" stroke="black"/>
<path d="M244.851,343.052v 4.57792" fill="none" stroke="black"/>
<path d="M258.837,343.052v 4.57792" fill="none" stroke="black"/>
<path d="M272.822,343.052v 4.57792" fill="none" stroke="black"/>
<path d="M286.807,338.474v 9.15583" fill="none" stroke="black"/>
<path d="M300.793,343.052v 4.57792" fill="none" stroke="black"/>
<path d="M314.778,343.052v 4.57792" fill="none" stroke="black"/>
<path d="M328.764,343.052v 4.57792" fill="none" stroke="black"/>
<path d="M342.749,338.474v 9.15583" fill="none" stroke="black"/>
<path d="M356.734,343.052v 4.57792" fill="none" stroke="black"/>
<path d="M370.72,343.052v 4.57792" fill="none" stroke="black"/>
<path d="M384.705,343.052v 4.57792" fill="none" stroke="black"/>
<path d="M398.691,338.474v 9.15583" fill="none" stroke="black"/>
<path d="M412.676,343.052v 4.57792" fill="none" stroke="black"/>
<path d="M426.661,343.052v 4.57792" fill="none" stroke="black"/>
<path d="M440.647,343.052v 4.57792" fill="none" stroke="black"/>
<path d="M454.632,338.474v 9.15583" fill="none" stroke="black"/>
<path d="M468.618,343.052v 4.57792" fill="none" stroke="black"/>
<path d="M482.603,343.052v 4.57792" fill="none" stroke="black"/>
<path d="M496.588,343.052v 4.57792" fill="none" stroke="black"/>
<path d="M510.574,338.474v 9.15583" fill="none" stroke="black"/>
<text xml:space="preserve" x="58.1676" y="364.686" fill="black" font-size="18.2347" font-family="Helvetica">0</text>
<text xml:space="preserve" x="101.215" y="364.686" fill="black" font-size="18.2347" font-family="Helvetica">0.02</text>
<text xml:space="preserve" x="157.258" y="364.686" fill="black" font-size="18.2347" font-family="Helvetica">0.04</text>
<text xml:space="preserve" x="213.301" y="364.686" fill="black" font-size="18.2347" font-family="Helvetica">0.06</text>
<text xml:space="preserve" x="269.345" y="364.686" fill="black" font-size="18.2347" font-family="Helvetica">0.08</text>
<text xml:space="preserve" x="331.885" y="364.686" fill="black" font-size="18.2347" font-family="Helvetica">0.1</text>
<text xml:space="preserve" x="381.431" y="364.686" fill="black" font-size="18.2347" font-family="Helvetica">0.12</text>
<text xml:space="preserve" x="437.474" y="364.686" fill="black" font-size="18.2347" font-family="Helvetica">0.14</text>
<text xml:space="preserve" x="493.517" y="364.686" fill="black" font-size="18.2347" font-family="Helvetica">0.16</text>
<text xml:space="preserve" x="200.306" y="380.931" fill="black" font-size="18.2347" font-family="Helvetica">Neutron Energy [MeV]</text>
<path d="M63.0409,347.63v -309.456" fill="none" stroke="black"/>
<path d="M76.6543,347.63h -13.6134" fill="none" stroke="black"/>
<path d="M69.8476,338.219h -6.80672" fill="none" stroke="black"/>
<path d="M69.8476,328.808h -6.80672" fill="none" stroke="black"/>
<path d="M69.8476,319.396h -6.80672" fill="none" stroke="black"/>
<path d="M76.6543,309.985h -13.6134" fill="none" stroke="black"/>
<path d="M69.8476,300.574h -6.80672" fill="none" stroke="black"/>
<path d="M69.8476,291.163h -6.80672" fill="none" stroke="black"/>
<path d="M69.8476,281.752h -6.80672" fill="none" stroke="black"/>
<path d="M76.6543,272.341h -13.6134" fill="none" stroke="black"/>
<path d="M69.8476,262.93h -6.80672" fill="none" stroke="black"/>
<path d="M69.8476,253.518h -6.80672" fill="none" stroke="black"/>
<path d="M69.8476,244.107h -6.80672" fill="none" stroke="black"/>
<path d="M76.6543,234.696h -13.6134" fill="none" stroke="black"/>
<path d="M69.8476,225.285h -6.80672" fill="none" stroke="black"/>
<path d="M69.8476,215.874h -6.80672" fill="none" stroke="black"/>
<path d="M69.8476,206.463h -6.80672" fill="none" stroke="black"/>
<path d="M76.6543,197.051h -13.6134" fill="none" stroke="black"/>
<path d="M69.8476,187.64h -6.80672" fill="none" stroke="black"/>
<path d="M69.8476,178.229h -6.80672" fill="none" stroke="black"/>
<path d="M69.8476,168.818h -6.80672" fill="none" stroke="black"/>
<path d="M76.6543,159.407h -13.6134" fill="none" stroke="black"/>
<path d="M69.8476,149.996h -6.80672" fill="none" stroke="black"/>
<path d="M69.8476,140.585h -6.80672" fill="none" stroke="black"/>
<path d="M69.8476,131.173h -6.80672" fill="none" stroke="black"/>
<path d="M76.6543,121.762h -13.6134" fill="none" stroke="black"/>
<path d="M69.8476,112.351h -6.80672" fill="none" stroke="black"/>
<path d="M69.8476,102.94h -6.80672" fill="none" stroke="black"/>
<path d="M69.8476,93.5288h -6.80672" fill="none" stroke="black"/>
<path d="M76.6543,84.1177h -13.6134" fill="none" stroke="black"/>
<path d="M69.8476,74.7065h -6.80672" fill="none" stroke="black"/>
<path d="M69.8476,65.2954h -6.80672" fill="none" stroke="black"/>
<path d="M69.8476,55.8842h -6.80672" fill="none" stroke="black"/>
<path d="M76.6543,46.4731h -13.6134" fill="none" stroke="black"/>
<path d="M76.6543,46.4731h -13.6134" fill="none" stroke="black"/>
<text xml:space="preserve" x="50.0454" y="354.128" fill="black" font-size="18.2347" font-family="Helvetica">0</text>
<text xml:space="preserve" x="20.8055" y="315.953" fill="black" font-size="18.2347" font-family="Helvetica">2000</text>
<text xml:space="preserve" x="20.8055" y="278.591" fill="black" font-size="18.2347" font-family="Helvetica">4000</text>
<text xml:space="preserve" x="20.8055" y="240.417" fill="black" font-size="18.2347" font-family="Helvetica">6000</text>
<text xml:space="preserve" x="20.8055" y="203.055" fill="black" font-size="18.2347" font-family="Helvetica">8000</text>
<text xml:space="preserve" x="10.2466" y="165.693" fill="black" font-size="18.2347" font-family="Helvetica">10000</text>
<text xml:space="preserve" x="10.2466" y="127.518" fill="black" font-size="18.2347" font-family="Helvetica">12000</text>
<text xml:space="preserve" x="10.2466" y="90.1563" fill="black" font-size="18.2347" font-family="Helvetica">14000</text>
<text xml:space="preserve" x="10.2466" y="52.7943" fill="black" font-size="18.2347" font-family="Helvetica">16000</text>
<g transform="rotate(-90,15.1199,211.989)">
<text xml:space="preserve" x="15.1199" y="211.989" fill="black" font-size="18.2347" font-family="Helvetica">Yield</text>
</g>
<path d="M65.2786,322.838l 4.47533, -44.9733l 4.47533, -39.3018l 4.47533, -34.1606l 4.47533, -29.5059l 4.47533, -25.297l 4.47533, -21.4965l 4.47533, -18.07l 4.47533, -14.9858l 4.47533, -12.2145l 4.47533, -9.72929l 4.47533, -7.50524l 4.47533,
 -5.51955l 4.47533, -3.75123l 4.47533, -2.18094l 4.47533, -0.790939l 4.47533, 0.4351l 4.47533, 1.51216l 4.47533, 2.45401l 4.47533, 3.27326l 4.47533, 3.9815l 4.47533, 4.58935l 4.47533, 5.10653l 4.47533, 5.54194l 4.47533, 5.90375l 4.47533, 6.19939l
 4.47533, 6.43568l 4.47533, 6.61885l 4.47533, 6.75458l 4.47533, 6.84803l 4.47533, 6.90394l 4.47533, 6.9266l 4.47533, 6.91991l 4.47533, 6.88743l 4.47533, 6.83238l 4.47533, 6.75769l 4.47533, 6.666l 4.47533, 6.5597l 4.47533, 6.44097l 4.47533, 6.31174l
 4.47533, 6.17378l 4.47533, 6.02867l 4.47533, 5.87783l 4.47533, 5.72251l 4.47533, 5.56387l 4.47533, 5.4029l 4.47533, 5.2405l 4.47533, 5.07748l 4.47533, 4.91452l 4.47533, 4.75226" fill="none" stroke="#ff0000" stroke-width="2"/>
<path d="M284.57,240.97l 4.47533, 4.59123l 4.47533, 4.4319l 4.47533, 4.27467l 4.47533, 4.11991l 4.47533, 3.96791l 4.47533, 3.81892l 4.47533, 3.67316l 4.47533, 3.53079l 4.47533, 3.39195l 4.47533, 3.25676l 4.47533, 3.1253l 4.47533, 2.99761l 4.47533,
 2.87375l 4.47533, 2.75373l 4.47533, 2.63754l 4.47533, 2.52517l 4.47533, 2.4166l 4.47533, 2.31179l 4.47533, 2.21068l 4.47533, 2.11323l 4.47533, 2.01936l 4.47533, 1.92901l 4.47533, 1.8421l 4.47533, 1.75855l 4.47533, 1.67828l 4.47533, 1.6012l 4.47533,
 1.52724l 4.47533, 1.45628l 4.47533, 1.38826l 4.47533, 1.32307l 4.47533, 1.26063l 4.47533, 1.20085l 4.47533, 1.14364l 4.47533, 1.0889l 4.47533, 1.03655l 4.47533, 0.986514l 4.47533, 0.938695l 4.47533, 0.893013l 4.47533, 0.849387l 4.47533, 0.807739l
 4.47533, 0.76799l 4.47533, 0.730065l 4.47533, 0.69389l 4.47533, 0.659395l 4.47533, 0.62651l 4.47533, 0.595168l 4.47533, 0.565305l 4.47533, 0.536856l 4.47533, 0.509763" fill="none" stroke="#ff0000" stroke-width="2"/>
<path d="M503.861,338.407l 4.47533, 0.483965" fill="none" stroke="#ff0000" stroke-width="2"/>
<path d="M65.2786,327.104l 4.47533, -37.8543l 4.47533, -33.867l 4.47533, -30.1917l 4.47533, -26.8068l 4.47533, -23.692l 4.47533, -20.8285l 4.47533, -18.1985l 4.47533, -15.7856l 4.47533, -13.5741l 4.47533, -11.5498l 4.47533, -9.69919l 4.47533,
 -8.00962l 4.47533, -6.46939l 4.47533, -5.06754l 4.47533, -3.79386l 4.47533, -2.6388l 4.47533, -1.59349l 4.47533, -0.649644l 4.47533, 0.200464l 4.47533, 0.964021l 4.47533, 1.64773l 4.47533, 2.25781l 4.47533, 2.80008l 4.47533, 3.27994l 4.47533,
 3.70239l 4.47533, 4.07212l 4.47533, 4.39346l 4.47533, 4.67044l 4.47533, 4.90679l 4.47533, 5.106l 4.47533, 5.27128l 4.47533, 5.40562l 4.47533, 5.51178l 4.47533, 5.59234l 4.47533, 5.64966l 4.47533, 5.68595l 4.47533, 5.70322l 4.47533, 5.70337l 4.47533,
 5.68811l 4.47533, 5.65906l 4.47533, 5.61768l 4.47533, 5.56533l 4.47533, 5.50327l 4.47533, 5.43265l 4.47533, 5.35451l 4.47533, 5.26984l 4.47533, 5.17952l 4.47533, 5.08437l 4.47533, 4.98513" fill="none" stroke="#ff00ff" stroke-width="2"/>
<path d="M284.57,198.698l 4.47533, 4.88248l 4.47533, 4.77705l 4.47533, 4.6694l 4.47533, 4.56005l 4.47533, 4.44946l 4.47533, 4.33806l 4.47533, 4.22622l 4.47533, 4.11431l 4.47533, 4.00262l 4.47533, 3.89143l 4.47533, 3.78099l 4.47533, 3.67153l 4.47533,
 3.56324l 4.47533, 3.4563l 4.47533, 3.35085l 4.47533, 3.24703l 4.47533, 3.14496l 4.47533, 3.04473l 4.47533, 2.94643l 4.47533, 2.85013l 4.47533, 2.75589l 4.47533, 2.66374l 4.47533, 2.57373l 4.47533, 2.48589l 4.47533, 2.40023l 4.47533, 2.31676l
 4.47533, 2.23549l 4.47533, 2.15641l 4.47533, 2.07951l 4.47533, 2.00479l 4.47533, 1.93222l 4.47533, 1.86177l 4.47533, 1.79344l 4.47533, 1.72718l 4.47533, 1.66296l 4.47533, 1.60076l 4.47533, 1.54053l 4.47533, 1.48224l 4.47533, 1.42585l 4.47533,
 1.37132l 4.47533, 1.31861l 4.47533, 1.26767l 4.47533, 1.21847l 4.47533, 1.17096l 4.47533, 1.12509l 4.47533, 1.08084l 4.47533, 1.03814l 4.47533, 0.996966l 4.47533, 0.957268" fill="none" stroke="#ff00ff" stroke-width="2"/>
<path d="M503.861,325.91l 4.47533, 0.919003" fill="none" stroke="#ff00ff" stroke-width="2"/>
<rect x="283.965" y="46.394" width="215.433" height="81.1895" fill="white"/>
<path d="M283.965,127.583h 215.433" fill="none" stroke="black"/>
<path d="M499.398,127.583v -81.1895" fill="none" stroke="black"/>
<path d="M499.398,46.394h -215.433" fill="none" stroke="black"/>
<path d="M283.965,46.394v 81.1895" fill="none" stroke="black"/>
<text xml:space="preserve" x="337.571" y="65.7898" fill="black" font-size="16.8934" font-family="Helvetica">BrumLiT</text>
<path d="M292.043,69.3977h 37.7008v -18.9442h -37.7008z" fill="white"/>
<path d="M292.043,59.9255h 37.7008" fill="none" stroke="#000099" stroke-width="2"/>
<g stroke="black" stroke-width="1" fill="none">
<line x1="309.894" y1="59.9255" x2="310.894" y2="59.9255"/>
</g>
<text xml:space="preserve" x="337.571" y="92.593" fill="black" font-size="16.8934" font-family="Helvetica">kT = 25 keV</text>
<path d="M292.043,96.4608h 37.7008v -18.9442h -37.7008z" fill="none" stroke="#f2f2f2"/>
<path d="M292.043,86.9887h 37.7008" fill="none" stroke="#ff0000" stroke-width="2"/>
<g stroke="black" stroke-width="1" fill="none">
<line x1="309.894" y1="86.9887" x2="310.894" y2="86.9887"/>
</g>
<text xml:space="preserve" x="337.571" y="119.396" fill="black" font-size="16.8934" font-family="Helvetica">kT = 30 keV</text>
<path d="M292.043,123.524h 37.7008v -18.9442h -37.7008z" fill="none" stroke="#f2f2f2"/>
<path d="M292.043,114.052h 37.7008" fill="none" stroke="#ff00ff" stroke-width="2"/>
<g stroke="black" stroke-width="1" fill="none">
<line x1="309.894" y1="114.052" x2="310.894" y2="114.052"/>
</g></svg>
