<?xml version="1.0" standalone="no"?>
<svg width="567.429" height="387.116" viewBox="0 0 567.429 387.116" xmlns="http://www.w3.org/2000/svg" shape-rendering="crispEdges">
<title>
/home/jeb/adnef/brumlit/Ep2600keV.svg
</title>
<desc>
Creator: ROOT Version 6.28/06
CreationDate: Thu Oct 26 14:16:05 2023</desc>
<defs>
</defs>
<rect x="0.5" y="0" width="566.929" height="386.616" fill="white"/>
<rect x="59.792" y="38.1743" width="450.782" height="309.456" fill="white"/>
<rect x="59.792" y="38.1743" width="450.782" height="309.456" fill="none" stroke="black"/>
<rect x="59.792" y="38.1743" width="450.782" height="309.456" fill="white"/>
<rect x="59.792" y="38.1743" width="450.782" height="309.456" fill="none" stroke="black"/>
<path d="M59.792,310.365h 0.901564v -34.4727h 0.901564v -20.4218h 0.901564v -12.7418h 0.901564v -16.7563h 0.901564v -9.33817h 0.901564v -8.2909h 0.901564v -15.2727h 0.901564v -14.9236h 0.901564v -1.92h 0.901564v -4.01454h 0.901564v -9.94908h
 0.901564v -10.3854h 0.901564v -6.89454h 0.901564v -3.22909h 0.901564v -16.0582h 0.901564v 0.436363h 0.901564v -1.65818h 0.901564v -5.75999h 0.901564v 2.00727h 0.901564v -4.18909h 0.901564v 0.523636h 0.901564v -10.6473h 0.901564v -2.35636h 0.901564v
 1.04727h 0.901564v -9.68726h 0.901564v 2.18182h 0.901564v -6.02181h 0.901564v 12.2182h 0.901564v -11.52h 0.901564v 2.70545h 0.901564v -1.13454h 0.901564v -9.94908h 0.901564v -2.44363h 0.901564v 3.14181h 0.901564v -4.10181h 0.901564v 1.48363h
 0.901564v 5.4109h 0.901564v -10.4727h 0.901564v 0.785453h 0.901564v 1.22182h 0.901564v -7.67999h 0.901564v -6.98181h 0.901564v 6.63272h 0.901564v -5.23636h 0.901564v 7.76726h 0.901564v -0.436363h 0.901564v -11.6073h 0.901564v 3.31636h 0.901564v
 2.70545h 0.901564v 1.74545h 0.901564v 9.77453h 0.901564v -13.5273h 0.901564v -8.2909h 0.901564v -0.0872726h 0.901564v -4.10181h 0.901564v 10.6473h 0.901564v -2.88h 0.901564v 10.2982h 0.901564v -1.13454h 0.901564v -5.23636h 0.901564v 3.40363h
 0.901564v -4.71272h 1.80313v -0.785453h 0.901564v 0.872726h 0.901564v -2.09454h 0.901564v 7.67999h 0.901564v 4.36363h 0.901564v -6.19636h 0.901564v 8.46544h 0.901564v -5.14908h 0.901564v 12.9163h 0.901564v -3.22909h 0.901564v -3.4909h 0.901564v
 2.44363h 0.901564v 5.4109h 0.901564v -7.50544h 0.901564v 6.89454h 0.901564v -0.523636h 0.901564v 0.523636h 0.901564v -2.26909h 0.901564v 0.785453h 0.901564v 11.2582h 0.901564v -9.16362h 0.901564v 16.0582h 0.901564v -14.2254h 0.901564v 10.2982h
 0.901564v 6.10908h 0.901564v -2.70545h 0.901564v 4.4509h 0.901564v -13.0909h 0.901564v 9.07635h 0.901564v 3.66545h 0.901564v -2.70545h 0.901564v 3.66545h 0.901564v 2.26909h 0.901564v 4.36363h 0.901564v -10.4727h 0.901564v -6.19636h 0.901564v
 13.7891h 0.901564v -4.18909h 0.901564v 16.5818h 0.901564v -9.2509h 0.901564v 0.0872726h 0.901564v 2.44363h 0.901564v -2.88h 0.901564v 7.50544h 0.901564v -5.32363h 0.901564v -2.00727h 0.901564v 7.85454h 0.901564v -1.22182h 0.901564v -12.7418h
 0.901564v 7.41817h 0.901564v -4.36363h 0.901564v 4.79999h 0.901564v -6.3709h 0.901564v 10.6473h 0.901564v -4.01454h 0.901564v -0.872726h 0.901564v -5.14908h 0.901564v 4.27636h 0.901564v 0.785453h 0.901564v 4.97454h 0.901564v -6.71999h 0.901564v
 9.33817h 0.901564v -11.8691h 0.901564v 6.02181h 0.901564v -0.610908h 0.901564v 3.57818h 0.901564v -0.785453h 0.901564v -9.51271h 0.901564v 1.74545h 0.901564v -0.174545h 0.901564v 2.70545h 0.901564v 10.2982h 0.901564v -6.80726h 0.901564v -6.80726h
 0.901564v 3.75272h 0.901564v 0.959999h 0.901564v -7.50544h 0.901564v 3.75272h 0.901564v -6.02181h 0.901564v 9.51271h 0.901564v -0.872726h 0.901564v -7.94181h 0.901564v 3.14181h 0.901564v -6.89454h 0.901564v 5.84726h 0.901564v 4.10181h 0.901564v
 5.23636h 0.901564v -3.57818h 0.901564v -5.23636h 0.901564v -3.31636h 0.901564v 3.66545h 0.901564v 5.93454h 0.901564v -3.14181h 0.901564v -4.71272h 0.901564v 6.80726h 0.901564v -9.94908h 0.901564v 13.7018h 0.901564v -7.59272h 0.901564v -7.3309h
 0.901564v 1.30909h 0.901564v 8.20363h 0.901564v -1.83272h 0.901564v -0.610908h 0.901564v 2.09454h 0.901564v 4.18909h 0.901564v -16.8436h 0.901564v 4.01454h 0.901564v 9.33817h 0.901564v -9.77453h 0.901564v 5.67272h 0.901564v -1.39636h 0.901564v
 -8.20363h 0.901564v 12.3054h 0.901564v -3.83999h 0.901564v -5.58545h 0.901564v -6.19636h 0.901564v 8.98908h 0.901564v -15.5345h 0.901564v 8.20363h 0.901564v 0.959999h 0.901564v 3.31636h 0.901564v -2.53091h 0.901564v -1.65818h 0.901564v 0.34909h
 0.901564v -0.523636h 0.901564v 6.63272h 0.901564v -5.14908h 0.901564v -7.50544h 0.901564v 1.57091h 0.901564v -2.44363h 0.901564v 0.0872726h 0.901564v 2.09454h 0.901564v 6.19636h 0.901564v -6.02181h 0.901564v -1.83272h 0.901564v 6.45817h 0.901564v
 -15.2727h 0.901564v 14.3127h 0.901564v -8.37817h 0.901564v 1.04727h 0.901564v 4.97454h 0.901564v -6.3709h 0.901564v 1.57091h 0.901564v -3.75272h 0.901564v -4.88727h 0.901564v 2.09454h 0.901564v 8.55272h 0.901564v -12.7418h 0.901564v 10.3854h
 0.901564v -6.28363h 0.901564v -0.785453h 0.901564v 2.00727h 0.901564v -3.05454h 0.901564v 2.26909h 0.901564v -5.67272h 0.901564v 0.436363h 0.901564v 4.97454h 0.901564v -7.59272h 0.901564v -2.79272h 0.901564v 3.75272h 0.901564v 5.06181h 0.901564v
 -6.28363h 0.901564v -0.959999h 0.901564v 8.37817h 0.901564v -4.71272h 0.901564v 1.92h 0.901564v -5.58545h 0.901564v 4.18909h 0.901564v -3.14181h 0.901564v -3.92727h 0.901564v -5.23636h 0.901564v 13.2654h 0.901564v 0.959999h 0.901564v 5.23636h
 0.901564v -4.36363h 0.901564v -5.32363h 0.901564v 6.80726h 0.901564v -5.23636h 0.901564v -3.66545h 0.901564v 2.70545h 0.901564v 2.70545h 0.901564v 3.40363h 0.901564v -4.4509h 0.901564v 10.2982h 0.901564v -5.75999h 0.901564v 0.610908h 0.901564v
 -1.39636h 0.901564v 11.3454h 0.901564v -13.1782h 0.901564v 11.0836h 0.901564v -0.610908h 0.901564v -1.22182h 0.901564v -8.02908h 0.901564v 15.7091h 0.901564v -6.10908h 0.901564v 6.3709h 0.901564v -1.13454h 0.901564v 0.34909h 0.901564v 6.54545h
 0.901564v -7.3309h 0.901564v 1.57091h 0.901564v -3.40363h 0.901564v 5.32363h 0.901564v -0.959999h 0.901564v 6.10908h 0.901564v -3.83999h 0.901564v 4.88727h 0.901564v 2.26909h 0.901564v 7.94181h 0.901564v 8.46544h 0.901564v -13.44h 0.901564v 0.34909h
 0.901564v 10.8218h 0.901564v -9.07635h 0.901564v 10.2982h 0.901564v -2.61818h 0.901564v 2.79272h 0.901564v 3.66545h 0.901564v -0.174545h 0.901564v -2.53091h 0.901564v 2.09454h 0.901564v 12.3927h 0.901564v -1.48363h 0.901564v -7.85454h 0.901564v
 -3.14181h 0.901564v 17.9782h 0.901564v -1.65818h 0.901564v -2.09454h 0.901564v 8.90181h 0.901564v -2.44363h 0.901564v -3.31636h 0.901564v 6.80726h 0.901564v 0.34909h 0.901564v 2.79272h 0.901564v 0.698181h 0.901564v 0.34909h 0.901564v 4.4509h
 0.901564v -4.18909h 0.901564v 4.4509h 0.901564v 8.98908h 0.901564v 3.14181h 0.901564v -11.7818h 0.901564v 1.74545h 0.901564v 2.44363h 0.901564v 3.66545h 0.901564v -0.0872726h 0.901564v -0.785453h 0.901564v 10.7345h 0.901564v -4.27636h 0.901564v
 0.0872726h 0.901564v -3.92727h 0.901564v 16.0582h 0.901564v -0.34909h 0.901564v 1.83272h 0.901564v -5.4109h 0.901564v 12.1309h 0.901564v -9.33817h 0.901564v 3.22909h 0.901564v 0.0872726h 0.901564v 2.79272h 0.901564v 3.66545h 0.901564v 0.0872726h
 0.901564v -0.872726h 0.901564v 2.09454h 0.901564v 3.92727h 0.901564v 7.59272h 0.901564v -2.53091h 0.901564v 0.610908h 0.901564v -2.88h 0.901564v 1.57091h 0.901564v 4.27636h 0.901564v -2.18182h 0.901564v 4.53818h 0.901564v -0.0872726h 0.901564v
 0.261818h 0.901564v 7.06908h 0.901564v -0.174545h 0.901564v -1.74545h 0.901564v -4.53818h 0.901564v 7.76726h 0.901564v 5.06181h 0.901564v -2.53091h 0.901564v 4.71272h 0.901564v -1.65818h 0.901564v 1.74545h 0.901564v 3.14181h 0.901564v -1.92h
 0.901564v -1.39636h 0.901564v 7.85454h 0.901564v 0.785453h 0.901564v 0.34909h 0.901564v -2.00727h 0.901564v 4.97454h 0.901564v 2.00727h 0.901564v -0.174545h 0.901564v 7.3309h 0.901564v -3.75272h 0.901564v 2.44363h 0.901564v 1.30909h 0.901564v
 -6.02181h 0.901564v 7.3309h 0.901564v -0.959999h 0.901564v -3.22909h 0.901564v 5.06181h 0.901564v 1.74545h 0.901564v 0.959999h 0.901564v 1.04727h 0.901564v 1.92h 0.901564v 2.44363h 0.901564v 2.88h 0.901564v -0.174545h 0.901564v 2.18182h 0.901564v
 -1.92h 0.901564v 8.20363h 0.901564v 2.35636h 0.901564v -0.436363h 0.901564v 3.57818h 0.901564v -2.35636h 0.901564v -2.26909h 0.901564v 2.96727h 0.901564v 0.174545h 0.901564v 5.23636h 0.901564v 1.92h 0.901564v 0.523636h 0.901564v 1.22182h 0.901564v
 -4.27636h 0.901564v 2.79272h 0.901564v -0.174545h 0.901564v 4.4509h 0.901564v 3.92727h 0.901564v 2.18182h 0.901564v 3.14181h 0.901564v -4.71272h 1.80313v 6.3709h 0.901564v -1.04727h 0.901564v 0.872726h 0.901564v 2.88h 0.901564v 5.4109h 0.901564v
 -3.83999h 0.901564v -0.872726h 0.901564v 2.18182h 0.901564v 4.4509h 0.901564v 1.30909h 0.901564v 0.0872726h 0.901564v 1.39636h 0.901564v -0.436363h 0.901564v 2.26909h 0.901564v 2.79272h 0.901564v 3.66545h 0.901564v -2.96727h 0.901564v 1.65818h
 0.901564v -1.30909h 0.901564v 3.66545h 0.901564v 3.57818h 0.901564v -1.30909h 0.901564v -1.92h 0.901564v 4.4509h 0.901564v 1.92h 0.901564v 0.698181h 0.901564v 2.44363h 0.901564v -1.39636h 0.901564v 1.22182h 0.901564v 0.34909h 0.901564v 3.05454h
 0.901564v 0.610908h 0.901564v 3.22909h 0.901564v 0.698181h 0.901564v -0.698181h 0.901564v 1.04727h 0.901564v 3.14181h 1.80313v 2.79272h 0.901564v -1.22182h 0.901564v 2.35636h 0.901564v 0.872726h 0.901564v 2.88h 0.901564v 0.174545h 0.901564v
 0.785453h 0.901564v 1.57091h 0.901564v 1.22182h 0.901564v 0.436363h 49.586" fill="none" stroke="#000099"/>
<path d="M59.792,347.63h 450.782" fill="none" stroke="black"/>
<path d="M59.792,338.408v 9.2223" fill="none" stroke="black"/>
<path d="M68.8077,343.019v 4.61115" fill="none" stroke="black"/>
<path d="M77.8233,343.019v 4.61115" fill="none" stroke="black"/>
<path d="M86.8389,343.019v 4.61115" fill="none" stroke="black"/>
<path d="M95.8546,343.019v 4.61115" fill="none" stroke="black"/>
<path d="M104.87,338.408v 9.2223" fill="none" stroke="black"/>
<path d="M113.886,343.019v 4.61115" fill="none" stroke="black"/>
<path d="M122.901,343.019v 4.61115" fill="none" stroke="black"/>
<path d="M131.917,343.019v 4.61115" fill="none" stroke="black"/>
<path d="M140.933,343.019v 4.61115" fill="none" stroke="black"/>
<path d="M149.948,338.408v 9.2223" fill="none" stroke="black"/>
<path d="M158.964,343.019v 4.61115" fill="none" stroke="black"/>
<path d="M167.98,343.019v 4.61115" fill="none" stroke="black"/>
<path d="M176.995,343.019v 4.61115" fill="none" stroke="black"/>
<path d="M186.011,343.019v 4.61115" fill="none" stroke="black"/>
<path d="M195.027,338.408v 9.2223" fill="none" stroke="black"/>
<path d="M204.042,343.019v 4.61115" fill="none" stroke="black"/>
<path d="M213.058,343.019v 4.61115" fill="none" stroke="black"/>
<path d="M222.073,343.019v 4.61115" fill="none" stroke="black"/>
<path d="M231.089,343.019v 4.61115" fill="none" stroke="black"/>
<path d="M240.105,338.408v 9.2223" fill="none" stroke="black"/>
<path d="M249.12,343.019v 4.61115" fill="none" stroke="black"/>
<path d="M258.136,343.019v 4.61115" fill="none" stroke="black"/>
<path d="M267.152,343.019v 4.61115" fill="none" stroke="black"/>
<path d="M276.167,343.019v 4.61115" fill="none" stroke="black"/>
<path d="M285.183,338.408v 9.2223" fill="none" stroke="black"/>
<path d="M294.199,343.019v 4.61115" fill="none" stroke="black"/>
<path d="M303.214,343.019v 4.61115" fill="none" stroke="black"/>
<path d="M312.23,343.019v 4.61115" fill="none" stroke="black"/>
<path d="M321.245,343.019v 4.61115" fill="none" stroke="black"/>
<path d="M330.261,338.408v 9.2223" fill="none" stroke="black"/>
<path d="M339.277,343.019v 4.61115" fill="none" stroke="black"/>
<path d="M348.292,343.019v 4.61115" fill="none" stroke="black"/>
<path d="M357.308,343.019v 4.61115" fill="none" stroke="black"/>
<path d="M366.324,343.019v 4.61115" fill="none" stroke="black"/>
<path d="M375.339,338.408v 9.2223" fill="none" stroke="black"/>
<path d="M384.355,343.019v 4.61115" fill="none" stroke="black"/>
<path d="M393.371,343.019v 4.61115" fill="none" stroke="black"/>
<path d="M402.386,343.019v 4.61115" fill="none" stroke="black"/>
<path d="M411.402,343.019v 4.61115" fill="none" stroke="black"/>
<path d="M420.417,338.408v 9.2223" fill="none" stroke="black"/>
<path d="M429.433,343.019v 4.61115" fill="none" stroke="black"/>
<path d="M438.449,343.019v 4.61115" fill="none" stroke="black"/>
<path d="M447.464,343.019v 4.61115" fill="none" stroke="black"/>
<path d="M456.48,343.019v 4.61115" fill="none" stroke="black"/>
<path d="M465.496,338.408v 9.2223" fill="none" stroke="black"/>
<path d="M474.511,343.019v 4.61115" fill="none" stroke="black"/>
<path d="M483.527,343.019v 4.61115" fill="none" stroke="black"/>
<path d="M492.543,343.019v 4.61115" fill="none" stroke="black"/>
<path d="M501.558,343.019v 4.61115" fill="none" stroke="black"/>
<path d="M510.574,338.408v 9.2223" fill="none" stroke="black"/>
<text xml:space="preserve" x="54.9187" y="364.686" fill="black" font-size="18.2347" font-family="Helvetica">0</text>
<text xml:space="preserve" x="93.9052" y="364.686" fill="black" font-size="18.2347" font-family="Helvetica">0.1</text>
<text xml:space="preserve" x="137.765" y="364.686" fill="black" font-size="18.2347" font-family="Helvetica">0.2</text>
<text xml:space="preserve" x="182.437" y="364.686" fill="black" font-size="18.2347" font-family="Helvetica">0.3</text>
<text xml:space="preserve" x="227.921" y="364.686" fill="black" font-size="18.2347" font-family="Helvetica">0.4</text>
<text xml:space="preserve" x="272.594" y="364.686" fill="black" font-size="18.2347" font-family="Helvetica">0.5</text>
<text xml:space="preserve" x="318.078" y="364.686" fill="black" font-size="18.2347" font-family="Helvetica">0.6</text>
<text xml:space="preserve" x="362.75" y="364.686" fill="black" font-size="18.2347" font-family="Helvetica">0.7</text>
<text xml:space="preserve" x="408.234" y="364.686" fill="black" font-size="18.2347" font-family="Helvetica">0.8</text>
<text xml:space="preserve" x="452.906" y="364.686" fill="black" font-size="18.2347" font-family="Helvetica">0.9</text>
<text xml:space="preserve" x="507.325" y="364.686" fill="black" font-size="18.2347" font-family="Helvetica">1</text>
<text xml:space="preserve" x="198.682" y="381.743" fill="black" font-size="18.2347" font-family="Helvetica">Neutron Energy [MeV]</text>
<path d="M59.792,347.63v -309.456" fill="none" stroke="black"/>
<path d="M73.4055,347.63h -13.6134" fill="none" stroke="black"/>
<path d="M66.5987,338.903h -6.80672" fill="none" stroke="black"/>
<path d="M66.5987,330.175h -6.80672" fill="none" stroke="black"/>
<path d="M66.5987,321.448h -6.80672" fill="none" stroke="black"/>
<path d="M66.5987,312.721h -6.80672" fill="none" stroke="black"/>
<path d="M73.4055,303.994h -13.6134" fill="none" stroke="black"/>
<path d="M66.5987,295.266h -6.80672" fill="none" stroke="black"/>
<path d="M66.5987,286.539h -6.80672" fill="none" stroke="black"/>
<path d="M66.5987,277.812h -6.80672" fill="none" stroke="black"/>
<path d="M66.5987,269.085h -6.80672" fill="none" stroke="black"/>
<path d="M73.4055,260.357h -13.6134" fill="none" stroke="black"/>
<path d="M66.5987,251.63h -6.80672" fill="none" stroke="black"/>
<path d="M66.5987,242.903h -6.80672" fill="none" stroke="black"/>
<path d="M66.5987,234.176h -6.80672" fill="none" stroke="black"/>
<path d="M66.5987,225.448h -6.80672" fill="none" stroke="black"/>
<path d="M73.4055,216.721h -13.6134" fill="none" stroke="black"/>
<path d="M66.5987,207.994h -6.80672" fill="none" stroke="black"/>
<path d="M66.5987,199.266h -6.80672" fill="none" stroke="black"/>
<path d="M66.5987,190.539h -6.80672" fill="none" stroke="black"/>
<path d="M66.5987,181.812h -6.80672" fill="none" stroke="black"/>
<path d="M73.4055,173.085h -13.6134" fill="none" stroke="black"/>
<path d="M66.5987,164.357h -6.80672" fill="none" stroke="black"/>
<path d="M66.5987,155.63h -6.80672" fill="none" stroke="black"/>
<path d="M66.5987,146.903h -6.80672" fill="none" stroke="black"/>
<path d="M66.5987,138.176h -6.80672" fill="none" stroke="black"/>
<path d="M73.4055,129.448h -13.6134" fill="none" stroke="black"/>
<path d="M66.5987,120.721h -6.80672" fill="none" stroke="black"/>
<path d="M66.5987,111.994h -6.80672" fill="none" stroke="black"/>
<path d="M66.5987,103.267h -6.80672" fill="none" stroke="black"/>
<path d="M66.5987,94.5393h -6.80672" fill="none" stroke="black"/>
<path d="M73.4055,85.8121h -13.6134" fill="none" stroke="black"/>
<path d="M66.5987,77.0848h -6.80672" fill="none" stroke="black"/>
<path d="M66.5987,68.3575h -6.80672" fill="none" stroke="black"/>
<path d="M66.5987,59.6303h -6.80672" fill="none" stroke="black"/>
<path d="M66.5987,50.903h -6.80672" fill="none" stroke="black"/>
<path d="M73.4055,42.1758h -13.6134" fill="none" stroke="black"/>
<path d="M73.4055,42.1758h -13.6134" fill="none" stroke="black"/>
<text xml:space="preserve" x="46.7965" y="354.128" fill="black" font-size="18.2347" font-family="Helvetica">0</text>
<text xml:space="preserve" x="27.3032" y="310.268" fill="black" font-size="18.2347" font-family="Helvetica">500</text>
<text xml:space="preserve" x="17.5566" y="266.408" fill="black" font-size="18.2347" font-family="Helvetica">1000</text>
<text xml:space="preserve" x="17.5566" y="222.548" fill="black" font-size="18.2347" font-family="Helvetica">1500</text>
<text xml:space="preserve" x="17.5566" y="179.5" fill="black" font-size="18.2347" font-family="Helvetica">2000</text>
<text xml:space="preserve" x="17.5566" y="135.641" fill="black" font-size="18.2347" font-family="Helvetica">2500</text>
<text xml:space="preserve" x="17.5566" y="91.7808" fill="black" font-size="18.2347" font-family="Helvetica">3000</text>
<text xml:space="preserve" x="17.5566" y="47.9209" fill="black" font-size="18.2347" font-family="Helvetica">3500</text>
<g transform="rotate(-90,14.3077,211.989)">
<text xml:space="preserve" x="14.3077" y="211.989" fill="black" font-size="18.2347" font-family="Helvetica">Yield</text>
</g>
<rect x="408.234" y="46.2965" width="90.9686" height="31.6766" fill="white"/>
<path d="M408.234,77.9731h 90.9686" fill="none" stroke="black"/>
<path d="M499.203,77.9731v -31.6766" fill="none" stroke="black"/>
<path d="M499.203,46.2965h -90.9686" fill="none" stroke="black"/>
<path d="M408.234,46.2965v 31.6766" fill="none" stroke="black"/>
<text xml:space="preserve" x="430.976" y="66.602" fill="black" font-size="13.6243" font-family="Helvetica">BrumLiT</text>
<path d="M411.645,73.2216h 15.9195v -22.1736h -15.9195z" fill="white"/>
<path d="M411.645,62.1348h 15.9195" fill="none" stroke="#000099"/>
<g stroke="black" stroke-width="1" fill="none">
<line x1="418.605" y1="62.1348" x2="419.605" y2="62.1348"/>
</g></svg>
