<?xml version="1.0" standalone="no"?>
<svg width="567.429" height="387.116" viewBox="0 0 567.429 387.116" xmlns="http://www.w3.org/2000/svg" shape-rendering="crispEdges">
<title>
/home/jeb/adnef/brumlit/th_Ep2600keV.svg
</title>
<desc>
Creator: ROOT Version 6.28/06
CreationDate: Thu Oct 26 14:21:45 2023</desc>
<defs>
</defs>
<rect x="0.5" y="0" width="566.929" height="386.616" fill="white"/>
<rect x="57.1929" y="38.6616" width="453.543" height="309.293" fill="white"/>
<rect x="57.1929" y="38.6616" width="453.543" height="309.293" fill="none" stroke="black"/>
<rect x="57.1929" y="38.6616" width="453.543" height="309.293" fill="white"/>
<rect x="57.1929" y="38.6616" width="453.543" height="309.293" fill="none" stroke="black"/>
<path d="M57.1929,347.002h 0.503937v -2.61941h 0.503937v -1.78596h 0.503937v -2.97661h 0.503937v -0.238128h 0.503937v -3.69099h 0.503937v -2.97661h 0.503937v -0.357193h 0.503937v -3.21473h 0.503937v -3.09567h 0.503937v -3.3338h 1.00787v -1.07158h
 0.503937v -6.6676h 0.503937v 2.26222h 0.503937v -2.97661h 0.503937v -4.28631h 0.503937v 2.14316h 0.503937v -11.4302h 0.503937v 3.81006h 0.503937v -3.69099h 0.503937v 0.119064h 0.503937v -0.476257h 0.503937v -3.81006h 0.503937v -2.85754h 0.503937v
 -5.11976h 0.503937v -0.119064h 0.503937v 2.50035h 0.503937v -6.19134h 0.503937v -4.88163h 0.503937v -3.69099h 0.503937v 4.6435h 0.503937v -6.3104h 0.503937v -0.357193h 0.503937v -3.57193h 0.503937v -4.6435h 0.503937v 5.11976h 0.503937v -3.09567h
 0.503937v -0.595321h 0.503937v -3.92912h 0.503937v -5.83415h 0.503937v -3.09567h 1.00787v -2.14316h 0.503937v 3.45286h 0.503937v -1.6669h 0.503937v -7.26292h 0.503937v -1.07158h 0.503937v -0.595321h 0.503937v -3.92912h 0.503937v -1.6669h 0.503937v
 -2.02409h 0.503937v -0.238128h 0.503937v -10.2395h 0.503937v 6.6676h 0.503937v -9.52514h 0.503937v -1.78596h 0.503937v 4.04818h 0.503937v -10.8348h 0.503937v 5.11976h 0.503937v -7.9773h 0.503937v -4.40538h 0.503937v 8.3345h 0.503937v 2.02409h
 0.503937v -7.62011h 0.503937v 2.50035h 0.503937v -8.45356h 0.503937v 4.04818h 0.503937v -6.42947h 0.503937v -4.40538h 0.503937v 7.62011h 0.503937v -17.8596h 0.503937v 2.50035h 0.503937v 7.9773h 0.503937v -14.4068h 0.503937v 1.30971h 0.503937v
 -0.595321h 0.503937v -0.238128h 0.503937v 6.78666h 0.503937v -4.16725h 0.503937v -9.04888h 0.503937v 5.47695h 0.503937v -6.78666h 0.503937v 2.61941h 0.503937v -8.81075h 0.503937v 0.476257h 0.503937v -0.714385h 0.503937v 11.5492h 0.503937v -12.0255h
 0.503937v -6.19134h 0.503937v 0.595321h 0.503937v -2.14316h 0.503937v 1.42877h 0.503937v -3.09567h 0.503937v -3.45286h 0.503937v 3.21473h 0.503937v -3.21473h 0.503937v -7.14385h 0.503937v -0.595321h 0.503937v 1.6669h 0.503937v -2.02409h 0.503937v
 -1.30971h 0.503937v 1.90503h 0.503937v -4.16725h 0.503937v 2.02409h 0.503937v -2.38128h 1.00787v -13.2161h 0.503937v 19.2884h 0.503937v -11.6683h 0.503937v -2.26222h 0.503937v 1.19064h 0.503937v -4.52444h 0.503937v -4.6435h 0.503937v 3.69099h
 0.503937v 1.54783h 0.503937v -18.574h 0.503937v 12.3827h 0.503937v -5.35789h 0.503937v 3.81006h 0.503937v -5.11976h 0.503937v -9.6442h 0.503937v 16.0737h 0.503937v -4.52444h 0.503937v -2.97661h 0.503937v -0.714385h 0.503937v -9.6442h 0.503937v
 -0.357193h 0.503937v 7.38198h 0.503937v -13.6924h 0.503937v 8.09637h 0.503937v 0.952514h 0.503937v -3.81006h 0.503937v -4.88163h 0.503937v 7.85824h 0.503937v 5.83415h 0.503937v -11.5492h 0.503937v -7.9773h 0.503937v 9.6442h 0.503937v -12.1446h
 0.503937v 14.883h 0.503937v -12.978h 0.503937v 4.28631h 0.503937v -0.357193h 0.503937v -8.3345h 0.503937v 10.4777h 0.503937v -3.09567h 0.503937v -8.57262h 0.503937v 3.92912h 0.503937v -5.47695h 0.503937v 0.119064h 0.503937v 6.78666h 0.503937v
 -5.83415h 0.503937v 7.02479h 0.503937v -12.2636h 0.503937v 5.0007h 0.503937v -0.952514h 0.503937v -4.04818h 0.503937v -3.45286h 0.503937v 7.26292h 0.503937v -5.11976h 0.503937v -5.0007h 0.503937v -9.76327h 0.503937v 11.6683h 0.503937v 7.38198h
 0.503937v -3.81006h 0.503937v -6.54853h 0.503937v -8.21543h 0.503937v 15.2402h 0.503937v -13.0971h 0.503937v 4.04818h 0.503937v 6.42947h 0.503937v -5.83415h 0.503937v 2.61941h 0.503937v -9.28701h 0.503937v 9.6442h 0.503937v 4.6435h 0.503937v
 -6.3104h 0.503937v -4.88163h 0.503937v -10.8348h 0.503937v 8.3345h 0.503937v 0.238128h 0.503937v -11.192h 0.503937v 6.42947h 0.503937v 13.8115h 0.503937v -12.2636h 0.503937v 0.952514h 0.503937v 1.90503h 0.503937v -3.21473h 0.503937v -3.57193h
 0.503937v 12.3827h 0.503937v -7.85824h 0.503937v 9.04888h 0.503937v -2.14316h 0.503937v -5.23883h 0.503937v -1.54783h 0.503937v 0.476257h 0.503937v 1.54783h 0.503937v -5.35789h 0.503937v -12.5017h 0.503937v 9.76327h 0.503937v 7.14385h 0.503937v
 0.238128h 0.503937v -11.073h 1.00787v 16.5499h 0.503937v -4.04818h 0.503937v -6.19134h 0.503937v -0.595321h 0.503937v 4.16725h 0.503937v -3.92912h 0.503937v 10.3586h 0.503937v -12.2636h 0.503937v 7.73917h 0.503937v 6.19134h 0.503937v -15.7165h
 0.503937v -2.14316h 0.503937v 16.7881h 0.503937v -10.2395h 0.503937v -7.26292h 0.503937v 2.61941h 0.503937v 6.19134h 0.503937v -2.85754h 0.503937v -2.73848h 0.503937v 0.714385h 0.503937v 5.95321h 0.503937v -4.40538h 0.503937v -1.6669h 0.503937v
 5.95321h 0.503937v 1.42877h 0.503937v -7.26292h 0.503937v 14.2877h 0.503937v -17.0262h 0.503937v 9.40607h 0.503937v -1.78596h 0.503937v 1.54783h 0.503937v -0.714385h 0.503937v -5.71508h 0.503937v 7.14385h 0.503937v 6.19134h 0.503937v -6.07228h
 0.503937v 6.54853h 0.503937v -11.6683h 0.503937v 16.1927h 0.503937v -15.1212h 0.503937v 8.92982h 0.503937v -13.0971h 0.503937v -1.42877h 0.503937v 17.5024h 0.503937v -9.04888h 0.503937v 6.07228h 0.503937v -15.8355h 0.503937v 13.0971h 0.503937v
 -3.3338h 0.503937v 4.28631h 0.503937v -6.78666h 0.503937v 6.6676h 0.503937v 2.61941h 0.503937v -13.9305h 0.503937v 10.9539h 0.503937v 7.14385h 0.503937v -4.04818h 0.503937v -3.3338h 0.503937v 1.90503h 0.503937v -2.14316h 0.503937v 8.92982h 0.503937v
 -1.90503h 0.503937v -0.83345h 0.503937v 4.40538h 0.503937v 1.42877h 0.503937v -17.6215h 0.503937v 15.4783h 0.503937v 1.78596h 0.503937v -1.42877h 0.503937v -5.11976h 0.503937v 5.11976h 0.503937v -11.192h 0.503937v 10.2395h 0.503937v -4.04818h
 0.503937v 15.3593h 0.503937v -4.28631h 0.503937v -5.11976h 0.503937v 2.14316h 0.503937v 1.42877h 0.503937v -0.714385h 0.503937v -3.92912h 0.503937v 5.0007h 0.503937v -2.26222h 0.503937v -3.45286h 0.503937v 0.595321h 0.503937v 2.50035h 0.503937v
 -0.595321h 0.503937v -3.92912h 0.503937v 0.238128h 0.503937v -1.07158h 0.503937v 10.5967h 0.503937v 2.50035h 0.503937v 0.476257h 0.503937v -10.3586h 0.503937v 1.42877h 0.503937v 6.19134h 0.503937v 8.69169h 0.503937v -9.40607h 0.503937v 4.04818h
 0.503937v -1.90503h 0.503937v 5.23883h 0.503937v -6.6676h 0.503937v 5.83415h 0.503937v 0.476257h 0.503937v 3.09567h 0.503937v 5.23883h 0.503937v -2.97661h 0.503937v 2.26222h 0.503937v -5.47695h 0.503937v -1.30971h 0.503937v -5.71508h 0.503937v
 5.23883h 0.503937v 10.2395h 0.503937v -3.92912h 0.503937v 4.40538h 0.503937v -5.95321h 0.503937v 3.3338h 0.503937v -4.88163h 0.503937v 9.28701h 0.503937v -4.28631h 0.503937v -8.3345h 0.503937v 15.5974h 0.503937v -2.50035h 0.503937v 3.69099h
 0.503937v -5.83415h 0.503937v 11.6683h 0.503937v -6.42947h 0.503937v 1.54783h 0.503937v -0.595321h 0.503937v -0.119064h 0.503937v -1.54783h 0.503937v 2.26222h 0.503937v -4.40538h 0.503937v -6.19134h 0.503937v 1.90503h 0.503937v 9.6442h 0.503937v
 0.714385h 0.503937v 13.8115h 0.503937v -15.9546h 0.503937v 3.69099h 0.503937v 0.83345h 0.503937v 14.2877h 0.503937v -1.78596h 0.503937v -2.14316h 0.503937v -4.6435h 0.503937v -5.35789h 0.503937v 11.073h 0.503937v 8.3345h 0.503937v -8.92982h
 0.503937v -1.30971h 0.503937v 7.62011h 0.503937v -13.2161h 0.503937v 10.1205h 0.503937v -3.21473h 0.503937v 6.3104h 0.503937v -2.38128h 0.503937v 11.7874h 0.503937v -15.4783h 0.503937v -0.357193h 0.503937v 4.76257h 0.503937v 1.6669h 0.503937v
 13.6924h 0.503937v -20.2409h 0.503937v 9.16794h 0.503937v 2.85754h 0.503937v -1.78596h 0.503937v 6.3104h 0.503937v 0.357193h 0.503937v -3.21473h 0.503937v 1.07158h 0.503937v -7.38198h 0.503937v 4.28631h 0.503937v 5.83415h 0.503937v -7.62011h
 0.503937v 5.71508h 0.503937v -1.19064h 0.503937v 4.52444h 0.503937v -6.54853h 0.503937v 6.07228h 0.503937v -2.97661h 0.503937v 3.81006h 0.503937v -0.83345h 0.503937v 1.19064h 0.503937v -5.71508h 0.503937v 13.9305h 0.503937v -3.21473h 0.503937v
 10.1205h 0.503937v -12.3827h 0.503937v 7.14385h 0.503937v -2.85754h 0.503937v 0.83345h 0.503937v 2.26222h 0.503937v 1.78596h 0.503937v -6.42947h 0.503937v 4.16725h 0.503937v 1.78596h 0.503937v 16.9071h 0.503937v -15.8355h 0.503937v -0.119064h
 0.503937v -6.90573h 0.503937v 12.6208h 0.503937v 1.54783h 0.503937v -6.19134h 0.503937v 10.9539h 0.503937v -8.69169h 0.503937v 4.52444h 0.503937v -2.26222h 0.503937v 2.38128h 0.503937v -0.357193h 0.503937v 1.90503h 0.503937v 5.0007h 0.503937v
 -6.78666h 0.503937v 3.57193h 0.503937v 7.02479h 0.503937v -11.4302h 0.503937v 2.73848h 0.503937v 2.61941h 0.503937v -2.85754h 0.503937v 15.4783h 0.503937v -7.02479h 0.503937v -2.85754h 0.503937v 0.714385h 0.503937v 13.0971h 0.503937v -17.5024h
 0.503937v 13.2161h 0.503937v 4.76257h 0.503937v -5.47695h 0.503937v 2.61941h 0.503937v 2.14316h 0.503937v -5.83415h 0.503937v 11.073h 0.503937v -4.76257h 0.503937v 6.07228h 0.503937v -7.26292h 0.503937v 2.61941h 0.503937v -1.07158h 0.503937v
 4.28631h 0.503937v 4.6435h 0.503937v -8.69169h 0.503937v 5.11976h 0.503937v -4.76257h 0.503937v 5.59602h 0.503937v -8.3345h 0.503937v 4.76257h 0.503937v 4.04818h 0.503937v -2.14316h 0.503937v 2.02409h 0.503937v 5.23883h 0.503937v 4.40538h 0.503937v
 -12.5017h 0.503937v 6.42947h 0.503937v 1.90503h 0.503937v -2.73848h 0.503937v -0.238128h 0.503937v 4.6435h 0.503937v 2.50035h 0.503937v -1.07158h 0.503937v -3.21473h 0.503937v 10.7158h 0.503937v -5.71508h 0.503937v -2.61941h 0.503937v 5.11976h
 0.503937v 1.19064h 0.503937v -4.76257h 0.503937v 3.92912h 0.503937v -6.3104h 0.503937v 0.714385h 0.503937v 14.4068h 0.503937v -10.0014h 0.503937v 1.54783h 0.503937v 0.119064h 0.503937v 4.88163h 0.503937v -0.476257h 0.503937v 6.3104h 0.503937v
 -12.5017h 0.503937v 7.50105h 0.503937v 3.3338h 0.503937v -3.3338h 0.503937v -3.09567h 0.503937v 2.61941h 0.503937v 5.47695h 0.503937v -3.09567h 0.503937v 7.9773h 0.503937v -0.238128h 0.503937v -5.35789h 0.503937v 2.85754h 0.503937v -3.92912h
 0.503937v 5.23883h 0.503937v 0.119064h 0.503937v -4.40538h 0.503937v 2.26222h 0.503937v 1.78596h 0.503937v 1.54783h 0.503937v -4.04818h 0.503937v 4.76257h 0.503937v 1.07158h 0.503937v 1.30971h 0.503937v 5.0007h 0.503937v -6.6676h 0.503937v 8.45356h
 0.503937v -6.3104h 0.503937v -1.42877h 0.503937v -0.83345h 1.00787v 4.28631h 0.503937v 1.54783h 0.503937v 0.83345h 0.503937v 0.357193h 0.503937v -2.97661h 0.503937v 2.85754h 0.503937v 7.9773h 0.503937v -2.02409h 0.503937v -7.14385h 0.503937v
 9.76327h 0.503937v -5.83415h 0.503937v -1.07158h 0.503937v 2.61941h 0.503937v 2.73848h 0.503937v 0.476257h 0.503937v 2.26222h 0.503937v -3.21473h 1.00787v 5.59602h 0.503937v 0.476257h 0.503937v -3.09567h 0.503937v 1.07158h 0.503937v -2.50035h
 0.503937v -1.54783h 0.503937v 4.52444h 0.503937v 1.54783h 0.503937v -2.61941h 0.503937v 0.119064h 0.503937v 5.35789h 0.503937v -4.16725h 0.503937v -0.595321h 0.503937v 1.6669h 0.503937v 3.21473h 0.503937v -0.595321h 0.503937v 2.50035h 0.503937v
 3.69099h 0.503937v -9.52514h 0.503937v 0.714385h 0.503937v 5.47695h 0.503937v 0.119064h 0.503937v -5.71508h 0.503937v 5.47695h 0.503937v 2.14316h 0.503937v 4.52444h 0.503937v -2.14316h 0.503937v 1.19064h 0.503937v 1.78596h 0.503937v -0.476257h
 0.503937v 7.9773h 0.503937v -15.2402h 0.503937v 4.88163h 0.503937v 1.42877h 0.503937v -2.38128h 0.503937v 5.83415h 0.503937v -3.69099h 0.503937v 5.23883h 0.503937v -1.19064h 0.503937v -5.83415h 0.503937v 9.16794h 0.503937v -6.6676h 0.503937v
 8.81075h 0.503937v -4.88163h 0.503937v 1.78596h 0.503937v 2.02409h 0.503937v -2.85754h 0.503937v 2.97661h 0.503937v 1.78596h 0.503937v 1.19064h 0.503937v -5.95321h 0.503937v 3.81006h 0.503937v 0.952514h 0.503937v 2.73848h 0.503937v -5.0007h
 0.503937v -0.357193h 0.503937v -1.78596h 0.503937v 5.23883h 0.503937v 3.09567h 0.503937v -2.02409h 0.503937v 0.714385h 1.00787v 3.81006h 0.503937v -2.85754h 0.503937v -3.92912h 0.503937v 1.30971h 0.503937v 1.78596h 0.503937v 6.6676h 0.503937v
 -3.09567h 0.503937v -0.952514h 0.503937v 1.6669h 0.503937v 2.61941h 0.503937v -2.61941h 0.503937v -5.11976h 0.503937v 6.54853h 0.503937v -1.07158h 0.503937v -3.69099h 0.503937v 5.59602h 0.503937v -1.6669h 0.503937v 2.02409h 0.503937v 0.119064h
 0.503937v 5.83415h 0.503937v -3.92912h 0.503937v 2.50035h 0.503937v -4.04818h 0.503937v 2.38128h 0.503937v 0.595321h 0.503937v 0.714385h 0.503937v -4.16725h 0.503937v 6.3104h 0.503937v -3.57193h 0.503937v 2.85754h 0.503937v -0.83345h 0.503937v
 2.26222h 0.503937v 0.119064h 0.503937v -2.14316h 0.503937v 0.595321h 0.503937v 2.50035h 0.503937v 1.30971h 0.503937v -2.38128h 0.503937v 0.238128h 0.503937v -0.357193h 0.503937v 7.73917h 0.503937v 1.19064h 0.503937v -5.71508h 0.503937v -1.6669h
 0.503937v 0.952514h 0.503937v -2.73848h 0.503937v 3.45286h 0.503937v 1.6669h 0.503937v 2.02409h 0.503937v -4.04818h 0.503937v -0.476257h 0.503937v 0.714385h 0.503937v 0.476257h 0.503937v -4.16725h 0.503937v 4.52444h 0.503937v 1.07158h 0.503937v
 1.42877h 0.503937v 2.26222h 0.503937v -5.47695h 0.503937v 6.6676h 0.503937v 2.73848h 0.503937v -4.04818h 0.503937v 0.595321h 0.503937v 4.28631h 0.503937v -2.26222h 0.503937v -0.714385h 0.503937v -1.90503h 0.503937v 3.21473h 0.503937v 0.952514h
 0.503937v 1.19064h 0.503937v 0.119064h 0.503937v -2.26222h 0.503937v 4.88163h 0.503937v -4.76257h 0.503937v 1.54783h 0.503937v -3.09567h 0.503937v 4.88163h 0.503937v -3.45286h 0.503937v 3.3338h 0.503937v -0.595321h 0.503937v 5.83415h 0.503937v
 -6.78666h 0.503937v 4.6435h 0.503937v -0.476257h 0.503937v -4.28631h 0.503937v 1.90503h 0.503937v 1.54783h 0.503937v -0.119064h 0.503937v -2.97661h 0.503937v -0.595321h 0.503937v 4.6435h 0.503937v 1.19064h 0.503937v 0.714385h 0.503937v -2.73848h
 0.503937v -1.42877h 0.503937v 7.02479h 0.503937v -5.47695h 0.503937v 5.11976h 0.503937v -4.04818h 0.503937v 4.76257h 0.503937v -5.0007h 0.503937v 3.92912h 0.503937v -1.07158h 0.503937v 0.595321h 0.503937v 0.357193h 0.503937v 0.357193h 0.503937v
 1.19064h 0.503937v -3.92912h 0.503937v 0.83345h 0.503937v -1.90503h 0.503937v 5.59602h 0.503937v 1.54783h 0.503937v -6.54853h 0.503937v 4.40538h 0.503937v 0.119064h 0.503937v 3.92912h 0.503937v -1.90503h 0.503937v 1.42877h 0.503937v -1.30971h
 1.00787v 3.69099h 0.503937v -4.40538h 0.503937v 2.02409h 0.503937v -0.238128h 0.503937v -2.26222h 0.503937v 1.19064h 0.503937v 2.97661h 0.503937v 0.476257h 0.503937v -1.19064h 0.503937v -1.42877h 0.503937v -0.714385h 0.503937v 2.26222h 0.503937v
 1.6669h 0.503937v -1.78596h 0.503937v 0.83345h 0.503937v 3.09567h 0.503937v -3.09567h 0.503937v 3.3338h 0.503937v -2.38128h 0.503937v 2.26222h 0.503937v -2.50035h 0.503937v -0.476257h 0.503937v 4.16725h 0.503937v -6.90573h 0.503937v 3.57193h
 0.503937v 1.90503h 0.503937v 2.26222h 0.503937v -4.76257h 0.503937v 2.38128h 0.503937v 1.19064h 0.503937v -1.54783h 0.503937v 3.21473h 0.503937v -2.97661h 0.503937v 3.3338h 0.503937v -0.952514h 0.503937v 1.19064h 0.503937v -2.61941h 0.503937v
 1.78596h 0.503937v 0.476257h 0.503937v 0.119064h 0.503937v 1.07158h 0.503937v -0.119064h 0.503937v -1.90503h 0.503937v -0.595321h 0.503937v 0.714385h 0.503937v 2.97661h 0.503937v -1.90503h 0.503937v 4.16725h 0.503937v -3.57193h 0.503937v 0.952514h
 0.503937v 2.50035h 0.503937v 0.476257h 0.503937v -4.88163h 0.503937v 1.54783h 0.503937v 2.97661h 0.503937v -1.90503h 0.503937v 0.83345h 0.503937v 1.54783h 0.503937v 1.6669h 0.503937v -4.52444h 0.503937v -1.07158h 0.503937v 2.14316h 0.503937v
 0.952514h 0.503937v -0.476257h 0.503937v 2.38128h 0.503937v -3.21473h 0.503937v 5.35789h 0.503937v -0.238128h 0.503937v -1.90503h 0.503937v -0.952514h 0.503937v 0.119064h 0.503937v 3.92912h 0.503937v -3.45286h 0.503937v 0.714385h 0.503937v
 -0.238128h 0.503937v -1.30971h 0.503937v 5.59602h 0.503937v -5.71508h 0.503937v 3.57193h 0.503937v 2.97661h 0.503937v -2.26222h 0.503937v 2.97661h 0.503937v -4.88163h 0.503937v 3.57193h 0.503937v 1.78596h 0.503937v -0.595321h 0.503937v -3.57193h
 0.503937v 0.357193h 0.503937v 1.07158h 0.503937v -1.19064h 0.503937v 1.07158h 0.503937v 2.14316h 0.503937v -0.476257h 0.503937v -1.42877h 0.503937v 1.19064h 0.503937v -0.952514h 0.503937v 0.595321h 0.503937v 2.26222h 0.503937v 0.714385h 0.503937v
 -1.30971h 0.503937v -0.476257h 0.503937v 1.90503h 0.503937v 0.83345h 0.503937v -3.81006h 0.503937v 1.6669h 0.503937v 2.26222h 0.503937v -2.14316h 0.503937v 0.952514h 0.503937v -0.83345h 0.503937v 0.476257h 0.503937v -2.73848h 0.503937v 4.88163h
 0.503937v -2.02409h 0.503937v -0.83345h 0.503937v 2.14316h 0.503937v 1.42877h 0.503937v -0.476257h 0.503937v -1.54783h 0.503937v 2.73848h 0.503937v -1.30971h 0.503937v 0.476257h 0.503937v -0.476257h 0.503937v 0.83345h 0.503937v 0.357193h 0.503937v
 -1.6669h 0.503937v 3.57193h 0.503937v -2.50035h 0.503937v -0.357193h 0.503937v 1.07158h 0.503937v -0.119064h 0.503937v 0.952514h 0.503937v 1.54783h 0.503937v -3.09567h 0.503937v 2.02409h 0.503937v -1.78596h 0.503937v 3.09567h 0.503937v -1.90503h
 0.503937v 1.19064h 1.00787v 1.30971h 0.503937v -0.952514h 0.503937v 0.83345h 0.503937v 0.119064h 1.00787v 0.238128h 0.503937v -1.42877h 0.503937v 3.21473h 0.503937v -1.90503h 0.503937v 2.02409h 0.503937v -0.595321h 0.503937v -1.6669h 0.503937v
 3.21473h 0.503937v -0.952514h 0.503937v -0.238128h 0.503937v -0.714385h 0.503937v 1.54783h 0.503937v -0.119064h 0.503937v -1.78596h 0.503937v 1.30971h 0.503937v 2.38128h 0.503937v -2.61941h 0.503937v 2.38128h 1.00787v -0.357193h 0.503937v 0.476257h
 0.503937v -0.595321h 0.503937v 0.357193h 0.503937v -0.595321h 0.503937v 1.90503h 0.503937v -0.595321h 0.503937v -0.476257h 0.503937v 0.119064h 0.503937v 1.30971h 0.503937v -0.476257h 0.503937v 0.357193h 0.503937v 0.595321h 0.503937v -0.357193h
 0.503937v 0.83345h 0.503937v -0.714385h 0.503937v 0.714385h 0.503937v -0.476257h 0.503937v 0.238128h 1.00787v 0.357193h 0.503937v 0.595321h 1.00787v -0.238128h 0.503937v 0.595321h 1.00787v 0.119064h 0.503937v 0.357193h 0.503937" fill="none"
 stroke="#000099"/>
<path d="M57.1929,347.955h 453.543" fill="none" stroke="black"/>
<path d="M57.1929,338.676v 9.27879" fill="none" stroke="black"/>
<path d="M69.7913,343.315v 4.6394" fill="none" stroke="black"/>
<path d="M82.3898,343.315v 4.6394" fill="none" stroke="black"/>
<path d="M94.9882,343.315v 4.6394" fill="none" stroke="black"/>
<path d="M107.587,338.676v 9.27879" fill="none" stroke="black"/>
<path d="M120.185,343.315v 4.6394" fill="none" stroke="black"/>
<path d="M132.783,343.315v 4.6394" fill="none" stroke="black"/>
<path d="M145.382,343.315v 4.6394" fill="none" stroke="black"/>
<path d="M157.98,338.676v 9.27879" fill="none" stroke="black"/>
<path d="M170.579,343.315v 4.6394" fill="none" stroke="black"/>
<path d="M183.177,343.315v 4.6394" fill="none" stroke="black"/>
<path d="M195.776,343.315v 4.6394" fill="none" stroke="black"/>
<path d="M208.374,338.676v 9.27879" fill="none" stroke="black"/>
<path d="M220.972,343.315v 4.6394" fill="none" stroke="black"/>
<path d="M233.571,343.315v 4.6394" fill="none" stroke="black"/>
<path d="M246.169,343.315v 4.6394" fill="none" stroke="black"/>
<path d="M258.768,338.676v 9.27879" fill="none" stroke="black"/>
<path d="M271.366,343.315v 4.6394" fill="none" stroke="black"/>
<path d="M283.965,343.315v 4.6394" fill="none" stroke="black"/>
<path d="M296.563,343.315v 4.6394" fill="none" stroke="black"/>
<path d="M309.161,338.676v 9.27879" fill="none" stroke="black"/>
<path d="M321.76,343.315v 4.6394" fill="none" stroke="black"/>
<path d="M334.358,343.315v 4.6394" fill="none" stroke="black"/>
<path d="M346.957,343.315v 4.6394" fill="none" stroke="black"/>
<path d="M359.555,338.676v 9.27879" fill="none" stroke="black"/>
<path d="M372.154,343.315v 4.6394" fill="none" stroke="black"/>
<path d="M384.752,343.315v 4.6394" fill="none" stroke="black"/>
<path d="M397.35,343.315v 4.6394" fill="none" stroke="black"/>
<path d="M409.949,338.676v 9.27879" fill="none" stroke="black"/>
<path d="M422.547,343.315v 4.6394" fill="none" stroke="black"/>
<path d="M435.146,343.315v 4.6394" fill="none" stroke="black"/>
<path d="M447.744,343.315v 4.6394" fill="none" stroke="black"/>
<path d="M460.343,338.676v 9.27879" fill="none" stroke="black"/>
<path d="M472.941,343.315v 4.6394" fill="none" stroke="black"/>
<path d="M485.539,343.315v 4.6394" fill="none" stroke="black"/>
<path d="M498.138,343.315v 4.6394" fill="none" stroke="black"/>
<path d="M510.736,338.676v 9.27879" fill="none" stroke="black"/>
<text xml:space="preserve" x="51.6698" y="364.686" fill="black" font-size="18.2347" font-family="Helvetica">0</text>
<text xml:space="preserve" x="97.1541" y="364.686" fill="black" font-size="18.2347" font-family="Helvetica">20</text>
<text xml:space="preserve" x="147.512" y="364.686" fill="black" font-size="18.2347" font-family="Helvetica">40</text>
<text xml:space="preserve" x="197.869" y="364.686" fill="black" font-size="18.2347" font-family="Helvetica">60</text>
<text xml:space="preserve" x="248.227" y="364.686" fill="black" font-size="18.2347" font-family="Helvetica">80</text>
<text xml:space="preserve" x="294.523" y="364.686" fill="black" font-size="18.2347" font-family="Helvetica">100</text>
<text xml:space="preserve" x="344.881" y="364.686" fill="black" font-size="18.2347" font-family="Helvetica">120</text>
<text xml:space="preserve" x="395.239" y="364.686" fill="black" font-size="18.2347" font-family="Helvetica">140</text>
<text xml:space="preserve" x="445.596" y="364.686" fill="black" font-size="18.2347" font-family="Helvetica">160</text>
<text xml:space="preserve" x="495.954" y="364.686" fill="black" font-size="18.2347" font-family="Helvetica">180</text>
<text xml:space="preserve" x="223.86" y="381.743" fill="black" font-size="18.2347" font-family="Helvetica">Lab angle [deg]</text>
<path d="M57.1929,347.955v -309.293" fill="none" stroke="black"/>
<path d="M70.7992,347.955h -13.6063" fill="none" stroke="black"/>
<path d="M63.9961,336.048h -6.80315" fill="none" stroke="black"/>
<path d="M63.9961,324.142h -6.80315" fill="none" stroke="black"/>
<path d="M63.9961,312.236h -6.80315" fill="none" stroke="black"/>
<path d="M63.9961,300.329h -6.80315" fill="none" stroke="black"/>
<path d="M70.7992,288.423h -13.6063" fill="none" stroke="black"/>
<path d="M63.9961,276.516h -6.80315" fill="none" stroke="black"/>
<path d="M63.9961,264.61h -6.80315" fill="none" stroke="black"/>
<path d="M63.9961,252.703h -6.80315" fill="none" stroke="black"/>
<path d="M63.9961,240.797h -6.80315" fill="none" stroke="black"/>
<path d="M70.7992,228.891h -13.6063" fill="none" stroke="black"/>
<path d="M63.9961,216.984h -6.80315" fill="none" stroke="black"/>
<path d="M63.9961,205.078h -6.80315" fill="none" stroke="black"/>
<path d="M63.9961,193.171h -6.80315" fill="none" stroke="black"/>
<path d="M63.9961,181.265h -6.80315" fill="none" stroke="black"/>
<path d="M70.7992,169.358h -13.6063" fill="none" stroke="black"/>
<path d="M63.9961,157.452h -6.80315" fill="none" stroke="black"/>
<path d="M63.9961,145.546h -6.80315" fill="none" stroke="black"/>
<path d="M63.9961,133.639h -6.80315" fill="none" stroke="black"/>
<path d="M63.9961,121.733h -6.80315" fill="none" stroke="black"/>
<path d="M70.7992,109.826h -13.6063" fill="none" stroke="black"/>
<path d="M63.9961,97.9199h -6.80315" fill="none" stroke="black"/>
<path d="M63.9961,86.0135h -6.80315" fill="none" stroke="black"/>
<path d="M63.9961,74.1071h -6.80315" fill="none" stroke="black"/>
<path d="M63.9961,62.2006h -6.80315" fill="none" stroke="black"/>
<path d="M70.7992,50.2942h -13.6063" fill="none" stroke="black"/>
<path d="M70.7992,50.2942h -13.6063" fill="none" stroke="black"/>
<text xml:space="preserve" x="44.3598" y="354.128" fill="black" font-size="18.2347" font-family="Helvetica">0</text>
<text xml:space="preserve" x="24.8666" y="294.836" fill="black" font-size="18.2347" font-family="Helvetica">500</text>
<text xml:space="preserve" x="15.1199" y="234.731" fill="black" font-size="18.2347" font-family="Helvetica">1000</text>
<text xml:space="preserve" x="15.1199" y="175.439" fill="black" font-size="18.2347" font-family="Helvetica">1500</text>
<text xml:space="preserve" x="15.1199" y="116.147" fill="black" font-size="18.2347" font-family="Helvetica">2000</text>
<text xml:space="preserve" x="15.1199" y="56.0431" fill="black" font-size="18.2347" font-family="Helvetica">2500</text>
<g transform="rotate(-90,15.1199,178.688)">
<text xml:space="preserve" x="15.1199" y="178.688" fill="black" font-size="18.2347" font-family="Times">&#0952;</text>
</g>
<g transform="rotate(-90,15.1199,216.05)">
<text xml:space="preserve" x="15.1199" y="216.05" fill="black" font-size="18.2347" font-family="Helvetica">dN/d</text>
</g></svg>
